<?xml version="1.0" standalone="no"?>
<!DOCTYPE svg PUBLIC "-//W3C//DTD SVG 20010904//EN"
 "http://www.w3.org/TR/2001/REC-SVG-20010904/DTD/svg10.dtd">
<svg version="1.0" xmlns="http://www.w3.org/2000/svg"
 width="1280.000000pt" height="494.000000pt" viewBox="0 0 1280.000000 494.000000"
 preserveAspectRatio="xMidYMid meet">
<metadata>
Created by potrace 1.16, written by Peter Selinger 2001-2019
</metadata>
<g transform="translate(0.000000,494.000000) scale(0.100000,-0.100000)"
fill="transparent" stroke="transparent">
<path d="M12513 4924 c-91 -33 -182 -147 -201 -251 -5 -32 -16 -48 -51 -74
-24 -19 -53 -50 -63 -70 l-19 -37 -71 37 c-69 35 -74 36 -182 36 -107 0 -114
-1 -181 -35 -39 -19 -73 -36 -77 -38 -5 -2 -8 5 -8 15 0 29 -55 117 -94 151
-73 64 -111 77 -221 77 -85 0 -106 -3 -143 -23 -109 -58 -172 -152 -180 -266
l-4 -71 -72 3 c-60 3 -79 0 -118 -21 l-47 -24 -38 40 c-97 100 -207 146 -351
147 -105 0 -186 -22 -264 -71 -94 -60 -172 -167 -199 -272 l-11 -45 -34 14
c-141 59 -363 71 -527 30 -262 -67 -469 -252 -542 -488 -19 -58 -51 -85 -61
-50 -14 45 -46 103 -75 136 -167 190 -502 180 -654 -19 l-30 -40 -45 23 c-50
25 -127 29 -174 9 -28 -12 -31 -11 -67 28 -62 68 -118 90 -224 90 -76 0 -98
-4 -138 -25 -60 -30 -117 -91 -142 -150 l-18 -45 -107 0 c-105 0 -109 -1 -181
-38 -67 -34 -74 -36 -83 -20 -18 33 -79 83 -122 99 -27 10 -63 15 -103 12
l-61 -3 0 37 c0 107 -86 225 -208 285 -75 37 -78 38 -191 38 -110 0 -119 -2
-185 -33 -38 -18 -70 -31 -71 -30 -1 2 -16 23 -32 48 -88 128 -232 200 -403
200 -200 0 -358 -96 -443 -269 -28 -57 -32 -77 -35 -167 l-4 -103 -25 10 c-37
14 -155 11 -202 -6 -23 -8 -55 -24 -71 -35 l-28 -20 -12 29 c-20 49 -101 122
-170 155 -60 29 -73 31 -175 31 -102 0 -114 -2 -175 -31 -36 -17 -85 -51 -108
-75 -44 -45 -92 -125 -92 -154 0 -14 -4 -13 -26 4 -81 64 -241 80 -349 36 -70
-29 -75 -30 -75 -11 0 7 -18 49 -39 92 -65 129 -186 236 -324 284 -86 31 -258
39 -347 16 -83 -21 -174 -65 -226 -110 l-41 -35 -34 35 c-19 19 -68 52 -108
72 -74 36 -77 37 -195 37 -115 0 -125 -2 -186 -31 -36 -17 -83 -46 -103 -64
-33 -29 -37 -30 -43 -13 -34 104 -121 215 -210 270 -135 82 -361 84 -491 3
l-33 -20 0 58 c0 233 -188 465 -426 526 -79 20 -219 20 -297 0 -120 -31 -221
-97 -304 -197 l-43 -52 0 -2252 0 -2253 6400 0 6400 0 -2 2447 -3 2448 -40 20
c-53 26 -182 31 -242 9z"/>
</g>
</svg>
